<?xml version="1.0" standalone="no"?>
<!DOCTYPE svg PUBLIC "-//W3C//DTD SVG 20010904//EN"
 "http://www.w3.org/TR/2001/REC-SVG-20010904/DTD/svg10.dtd">
<svg version="1.0" xmlns="http://www.w3.org/2000/svg"
 width="1024.000000pt" height="1024.000000pt" viewBox="0 0 1024.000000 1024.000000"
 preserveAspectRatio="xMidYMid meet">
<metadata>
Created by potrace 1.16, written by Peter Selinger 2001-2019
</metadata>
<g transform="translate(0.000000,1024.000000) scale(0.100000,-0.100000)"
fill="#000000" stroke="none">
<path d="M4875 9519 c-498 -33 -1016 -173 -1446 -389 -796 -399 -1419 -1045
-1780 -1843 -352 -780 -429 -1620 -223 -2456 172 -696 559 -1352 1082 -1834
600 -553 1324 -886 2160 -993 164 -21 633 -29 834 -15 299 22 627 85 895 172
1002 326 1820 1049 2245 1984 406 893 455 1845 143 2780 -404 1209 -1427 2166
-2650 2478 -403 103 -846 144 -1260 116z m680 -344 c409 -56 763 -163 1115
-339 645 -322 1185 -844 1517 -1466 207 -388 336 -792 399 -1255 23 -162 26
-586 6 -745 -135 -1079 -670 -1942 -1545 -2491 -341 -215 -724 -373 -1097
-453 -908 -196 -1854 -41 -2631 430 -378 229 -680 502 -952 861 -271 358 -486
828 -587 1283 -87 389 -104 875 -44 1248 94 590 304 1090 658 1570 95 129 173
219 326 375 257 265 533 461 904 643 394 194 757 301 1181 349 169 19 580 13
750 -10z"/>
<path d="M4512 9019 c-40 -15 -46 -51 -46 -274 -1 -236 9 -320 61 -534 41
-172 92 -312 164 -452 101 -196 237 -379 282 -379 12 1 61 16 110 34 48 18 87
30 87 27 0 -3 -42 -28 -92 -56 -141 -76 -367 -231 -526 -358 -216 -173 -373
-310 -440 -382 -65 -69 -68 -77 -92 -250 -13 -100 -44 -153 -243 -420 -358
-481 -438 -590 -537 -730 -125 -179 -223 -331 -331 -515 -78 -134 -79 -136
-79 -205 0 -115 19 -296 37 -350 8 -27 33 -85 55 -129 22 -43 53 -117 70 -165
67 -193 142 -257 398 -344 228 -78 429 -73 602 14 94 48 156 125 187 234 15
52 167 227 241 277 30 21 111 60 180 89 69 28 224 98 345 154 219 103 332 147
411 160 l42 6 16 -48 c34 -105 96 -388 126 -583 28 -177 97 -463 170 -705 69
-228 126 -452 140 -552 14 -97 5 -94 155 -58 445 105 950 360 1345 679 174
141 427 407 557 587 156 216 306 486 408 732 l36 88 -36 40 c-58 65 -101 139
-149 259 -25 63 -58 127 -73 143 -39 41 -103 76 -197 109 l-81 29 100 -5 c56
-3 114 -10 129 -16 16 -6 31 -9 33 -6 7 7 -36 177 -53 205 -28 48 -111 88
-249 122 l-70 17 100 1 c55 0 117 -4 138 -10 22 -6 41 -9 43 -6 9 9 -65 239
-89 276 -17 25 -46 50 -76 65 -51 27 -193 66 -235 66 -14 0 -26 5 -26 10 0 11
86 16 198 11 39 -1 72 -1 72 2 0 14 -112 260 -132 290 -49 75 -129 102 -273
93 -106 -7 -99 0 50 54 50 18 94 36 98 40 10 9 -10 50 -32 66 -26 20 -157 37
-228 31 l-68 -6 63 30 c35 17 89 32 122 36 33 3 60 9 60 13 0 3 -21 33 -46 66
-25 32 -64 89 -85 125 -74 128 -133 153 -346 147 l-135 -3 78 37 c44 21 111
48 149 60 39 12 74 25 79 30 14 11 -191 215 -242 239 -70 34 -139 16 -289 -76
-24 -14 -43 -22 -43 -17 0 11 138 144 174 167 14 10 26 21 26 25 0 19 -103 43
-161 36 -68 -7 -186 -33 -211 -47 -26 -14 -22 4 5 20 45 28 167 123 167 130 0
9 -106 78 -165 109 -23 11 -87 36 -143 56 -120 42 -119 42 -103 -63 20 -127 9
-269 -28 -365 -19 -47 -21 -26 -9 72 9 71 9 123 0 229 -26 286 -116 580 -302
988 -163 356 -230 435 -307 364 -69 -65 -151 -299 -190 -544 -27 -170 -25
-506 5 -642 39 -180 102 -334 195 -481 65 -101 64 -103 -12 -24 -126 131 -211
282 -264 467 -16 56 -21 106 -23 252 l-3 182 -63 54 c-91 77 -175 186 -386
502 -235 352 -252 372 -300 354z m177 -601 c106 -246 171 -388 268 -582 63
-126 112 -233 110 -240 -6 -18 -121 146 -175 250 -75 146 -129 289 -222 587
-14 42 -1 32 19 -15z m1139 -323 c61 -183 85 -317 86 -470 1 -148 -17 -223
-82 -350 l-37 -70 -3 51 c-2 27 9 124 23 213 29 191 32 343 9 500 -15 105 -36
207 -50 246 -5 14 -4 17 4 10 6 -5 28 -64 50 -130z m654 -1190 c457 -363 809
-898 1067 -1621 104 -292 167 -484 152 -468 -11 11 -108 230 -160 362 -164
411 -385 819 -615 1137 -126 175 -297 373 -499 579 -76 77 -137 141 -137 143
0 10 96 -55 192 -132z m-1351 -281 c30 -9 72 -25 94 -36 46 -23 189 -128 183
-134 -3 -2 -41 9 -85 26 -225 81 -405 81 -535 -1 -46 -30 -112 -98 -104 -107
3 -2 32 14 66 36 70 47 144 66 234 60 51 -3 78 -13 161 -58 54 -29 94 -55 88
-57 -7 -3 -49 8 -95 22 -119 39 -243 44 -320 15 -72 -27 -138 -91 -180 -174
-55 -108 -138 -219 -154 -204 -3 4 1 19 9 35 8 15 29 80 47 143 18 63 47 145
66 181 102 203 327 312 525 253z m-962 -296 c-54 -107 -287 -467 -404 -622
-50 -67 -126 -167 -168 -223 -43 -57 -109 -151 -148 -210 -104 -159 -267 -498
-186 -388 40 55 171 189 245 252 80 67 152 106 186 101 18 -3 15 -6 -16 -22
-21 -10 -38 -21 -38 -25 0 -3 22 -6 48 -7 106 -1 207 -79 276 -213 57 -110 76
-184 85 -323 l6 -107 70 56 c68 54 226 163 238 163 3 0 -13 -37 -37 -83 -23
-46 -57 -128 -75 -183 -33 -98 -33 -101 -27 -225 9 -158 2 -176 -97 -273 -43
-41 -94 -105 -122 -151 -51 -85 -88 -130 -119 -147 -14 -8 -25 -5 -47 11 -39
29 -49 27 -94 -20 -22 -22 -56 -49 -75 -59 -74 -38 -233 -34 -313 7 -43 22
-27 25 39 8 165 -43 284 -5 382 120 31 40 77 98 101 130 47 61 135 132 216
172 59 30 51 23 59 50 11 36 -27 67 -72 58 -94 -18 -182 -81 -315 -227 -110
-121 -144 -148 -181 -148 -58 0 -60 72 -7 213 61 160 74 220 68 314 -10 167
-98 281 -231 299 -66 9 -131 -17 -194 -77 -29 -28 -51 -53 -49 -55 2 -3 26 9
53 26 58 36 158 60 175 43 8 -8 0 -17 -32 -34 -67 -34 -97 -59 -128 -109 -49
-76 -65 -149 -57 -262 4 -54 5 -98 2 -98 -9 0 -44 126 -56 201 -12 74 -10 100
16 189 15 54 -15 3 -41 -70 -20 -57 -28 -99 -31 -174 -2 -55 -5 -101 -7 -103
-8 -8 -58 111 -71 169 -52 225 -18 368 158 663 88 147 131 209 299 433 139
186 636 878 698 974 24 37 47 67 52 67 4 1 -11 -36 -34 -81z m1220 -52 c-3 -3
-37 -21 -76 -40 -40 -20 -104 -62 -142 -95 -77 -64 -129 -84 -225 -84 -51 0
-145 20 -206 45 -30 12 -19 14 111 13 170 0 220 13 302 79 56 46 150 85 206
86 19 0 32 -2 30 -4z m-523 -21 c-22 -17 -36 -19 -36 -7 0 14 12 22 34 22 21
-1 21 -1 2 -15z m1412 -96 c89 -250 105 -570 41 -828 -93 -373 -349 -601 -751
-666 -102 -16 -188 -20 -109 -4 57 11 220 65 290 96 281 125 473 398 526 752
28 184 15 487 -29 671 -28 117 -14 107 32 -21z m-1353 -517 c-51 -43 -251
-298 -327 -415 l-20 -32 6 30 c14 68 86 193 153 265 76 82 178 170 196 170 7
-1 3 -8 -8 -18z m-207 -1167 c-2 -3 -49 -27 -104 -54 -54 -27 -130 -70 -169
-95 -73 -48 -89 -53 -100 -35 -18 29 83 89 255 150 103 37 128 44 118 34z
m-1245 -312 c-13 -85 -49 -119 -115 -110 -49 7 -54 11 -42 38 8 17 135 106
156 108 4 1 4 -16 1 -36z"/>
<path d="M3860 4728 c-30 -48 -48 -116 -76 -278 -13 -80 -27 -153 -30 -164
-10 -30 18 -14 53 33 54 70 93 225 93 369 0 80 -10 89 -40 40z"/>
<path d="M3602 1884 c2 -23 9 -30 38 -35 49 -10 77 -48 85 -111 3 -29 4 -172
1 -318 -3 -146 -5 -286 -6 -312 0 -56 -29 -96 -81 -113 -26 -9 -34 -17 -34
-36 l0 -24 236 -3 c212 -2 237 -1 243 14 8 21 -11 44 -36 44 -35 0 -76 29 -87
61 -6 18 -11 81 -11 140 l0 109 118 0 c136 0 215 17 282 60 75 48 117 117 126
209 16 151 -57 259 -214 314 -51 18 -88 21 -360 25 l-304 4 4 -28z m498 -65
c42 -10 93 -60 114 -111 22 -52 20 -162 -3 -213 -35 -77 -103 -115 -208 -115
l-53 0 0 224 0 225 28 4 c29 5 67 0 122 -14z"/>
<path d="M4492 1873 c2 -20 10 -29 34 -35 17 -4 39 -17 50 -29 18 -20 19 -40
19 -389 l0 -368 -24 -26 c-13 -14 -39 -30 -58 -37 -27 -8 -33 -16 -31 -32 3
-22 5 -22 243 -22 l240 0 0 25 c0 20 -7 26 -42 35 -24 5 -53 20 -65 33 -21 21
-23 32 -26 167 l-3 145 45 0 c54 0 49 7 178 -209 51 -85 106 -163 121 -175 23
-17 46 -22 123 -24 119 -5 160 2 167 28 4 15 -2 22 -27 30 -42 13 -91 65 -157
165 -29 44 -72 106 -96 139 -24 32 -43 62 -43 66 0 4 17 15 39 24 45 21 106
77 128 119 24 47 28 135 9 199 -13 44 -26 65 -63 97 -87 77 -219 101 -551 101
l-213 0 3 -27z m508 -73 c48 -24 76 -63 90 -124 33 -149 -55 -256 -212 -256
l-48 0 0 200 0 200 65 0 c46 0 78 -6 105 -20z"/>
<path d="M5490 1877 c0 -19 8 -26 38 -35 80 -24 77 -7 77 -427 0 -420 3 -404
-77 -426 -32 -8 -39 -14 -36 -32 3 -22 4 -22 243 -22 238 0 240 0 243 22 3 18
-5 24 -53 38 -78 22 -85 41 -85 235 l0 150 225 0 225 0 0 -156 c0 -174 -8
-204 -64 -224 -51 -19 -61 -26 -61 -46 0 -18 12 -19 234 -22 245 -3 261 0 240
40 -5 10 -19 18 -30 18 -31 0 -57 18 -74 50 -13 24 -15 86 -15 377 0 327 1
350 20 380 13 22 31 35 59 43 21 5 41 16 44 24 13 34 -6 36 -244 34 -226 -3
-234 -4 -234 -23 0 -14 11 -24 40 -33 76 -25 80 -33 83 -207 l3 -155 -225 0
-226 0 1 133 c1 180 8 198 85 225 36 13 49 23 49 37 0 19 -10 20 -242 23
l-243 2 0 -23z"/>
</g>
</svg>
